<svg width="72" height="28" viewBox="0 0 72 28" fill="none" xmlns="http://www.w3.org/2000/svg">
<path d="M0.727234 27.3452V14.8323H8.77269V17.045H3.24022V19.9627H7.6623V22.1363H3.24022V25.1324H8.77269V27.3452H0.727234Z" fill="black"/>
<path d="M13.9545 27.3452H9.76617V14.8323H13.9545C15.0259 14.8323 15.922 14.9498 16.6038 15.1652C17.3051 15.4002 17.8311 15.7722 18.2207 16.2813C18.6103 16.8101 18.8636 17.4171 19.0194 18.122C19.1753 18.827 19.2337 19.7473 19.2337 20.8635C19.2337 21.9797 19.1753 22.9196 19.0389 23.6637C18.9025 24.4079 18.6493 25.0736 18.2792 25.6415C17.909 26.229 17.3636 26.6402 16.6623 26.9143C15.961 27.1689 15.0454 27.306 13.9545 27.306V27.3452ZM16.6038 22.3909C16.6233 21.9993 16.6428 21.451 16.6428 20.7656C16.6428 20.0802 16.6233 19.5124 16.5649 19.1011C16.5064 18.6899 16.409 18.2983 16.2142 17.9654C16.0389 17.6129 15.7662 17.3779 15.396 17.2604C15.0454 17.1234 14.5584 17.0646 13.935 17.0646H12.2792V25.152H13.935C14.8506 25.152 15.5129 24.917 15.922 24.447C16.2727 24.075 16.487 23.3896 16.5844 22.3909H16.6038Z" fill="black"/>
<path d="M25.526 22.8608V20.6481H29.1493V27.1493C27.3961 27.4234 25.9935 27.5801 24.9026 27.5801C22.9545 27.5801 21.6299 27.0514 20.9091 26.0135C20.1883 24.9757 19.8182 23.3112 19.8182 21.0397C19.8182 18.7682 20.1883 17.1429 20.948 16.1246C21.7078 15.1064 22.9935 14.6168 24.8052 14.6168C25.9351 14.6168 27.1623 14.7539 28.487 15.0085L29.1493 15.1455L29.0714 17.1233C27.6104 16.9667 26.4026 16.8883 25.4675 16.8883C24.5325 16.8883 23.8701 17.0058 23.5 17.2212C23.1299 17.4366 22.8377 17.8478 22.6623 18.4353C22.487 19.0228 22.3896 20.041 22.3896 21.4901C22.3896 22.9392 22.5649 23.9378 22.9156 24.5253C23.2662 25.0932 24.0065 25.3869 25.1169 25.3869L26.6364 25.3086V22.8804H25.5065L25.526 22.8608Z" fill="black"/>
<path d="M30.4351 27.3452V14.8323H38.4805V17.045H32.948V19.9627H37.3701V22.1363H32.948V25.1324H38.4805V27.3452H30.4351Z" fill="black"/>
<path d="M0.727234 0.654907H5.61684C6.90256 0.654907 7.87658 0.909473 8.51944 1.43819C9.1623 1.9669 9.49347 2.80892 9.49347 3.96426C9.49347 4.66921 9.39606 5.21751 9.18178 5.62873C8.96749 6.03995 8.61685 6.412 8.12983 6.72532C8.67529 6.9603 9.08438 7.29319 9.33762 7.74358C9.59087 8.19396 9.72723 8.801 9.72723 9.58428C9.72723 10.7984 9.37658 11.6991 8.67529 12.2866C7.97399 12.8741 6.98048 13.1678 5.69477 13.1678H0.727234V0.654907ZM5.48048 2.82851H3.24022V5.80496H5.49996C6.45451 5.80496 6.92204 5.31541 6.92204 4.31673C6.92204 3.31805 6.43503 2.82851 5.48048 2.82851ZM5.5584 7.9394H3.2597V10.9942H5.5584C6.10386 10.9942 6.51295 10.8767 6.7662 10.6613C7.01944 10.4459 7.15581 10.0347 7.15581 9.44721C7.15581 8.44853 6.61035 7.9394 5.53892 7.9394H5.5584Z" fill="#9E1C20"/>
<path d="M17.8506 13.1678H10.7597V0.654907H13.2922V10.9159H17.8506V13.1678Z" fill="#9E1C20"/>
<path d="M18.3182 13.1678V0.654907H26.3636V2.86767H20.8312V5.78538H25.2532V7.95898H20.8312V10.955H26.3636V13.1678H18.3182Z" fill="#9E1C20"/>
<path d="M27.3571 13.1678V0.654907H35.4026V2.86767H29.8701V5.78538H34.2922V7.95898H29.8701V10.955H35.4026V13.1678H27.3571Z" fill="#9E1C20"/>
<path d="M40.5844 13.1678H36.3961V0.654907H40.5844C41.6558 0.654907 42.5519 0.772399 43.2337 0.987801C43.935 1.22278 44.461 1.59484 44.8506 2.10397C45.2402 2.63269 45.4935 3.23973 45.6493 3.94468C45.8051 4.64963 45.8636 5.56998 45.8636 6.68615C45.8636 7.80232 45.8052 8.74226 45.6688 9.48637C45.5324 10.2305 45.2792 10.8963 44.909 11.4642C44.5389 12.0516 43.9935 12.4628 43.2922 12.737C42.5909 12.9915 41.6753 13.1286 40.5844 13.1286V13.1678ZM43.2337 8.19396C43.2532 7.80232 43.2727 7.25403 43.2727 6.56866C43.2727 5.88329 43.2532 5.31541 43.1948 4.90419C43.1363 4.49297 43.0389 4.10133 42.8441 3.76844C42.6493 3.43555 42.3961 3.18098 42.0259 3.06349C41.6753 2.92642 41.1883 2.86767 40.5649 2.86767H38.909V10.955H40.5649C41.4805 10.955 42.1428 10.72 42.5519 10.2501C42.9026 9.87801 43.1168 9.19264 43.2142 8.19396H43.2337Z" fill="#9E1C20"/>
<path d="M46.974 13.1678V0.654907H49.5065V13.1678H46.974Z" fill="#9E1C20"/>
<path d="M51.1039 13.1678V0.654907H55.3701L58.3701 10.955H58.5454V0.654907H61.0779V13.1678H56.9286L53.8117 2.86767H53.6364V13.1678H51.1039Z" fill="#9E1C20"/>
<path d="M67.8766 8.66393V6.45117H71.5V12.9524C69.7467 13.2265 68.3441 13.3832 67.2532 13.3832C65.3052 13.3832 63.9805 12.8545 63.2597 11.8166C62.539 10.7788 62.1688 9.11431 62.1688 6.84281C62.1688 4.5713 62.539 2.946 63.2987 1.92773C64.0584 0.929053 65.3442 0.419922 67.1558 0.419922C68.2857 0.419922 69.513 0.556995 70.8377 0.811561L71.5 0.948635L71.4221 2.92641C69.961 2.76976 68.7532 2.69143 67.8182 2.69143C66.8831 2.69143 66.2208 2.80892 65.8506 3.02432C65.4805 3.23972 65.1883 3.65095 65.013 4.2384C64.8377 4.82586 64.7403 5.84413 64.7403 7.29319C64.7403 8.74226 64.9156 9.74094 65.2662 10.3284C65.6169 10.8963 66.3571 11.19 67.4675 11.19L68.987 11.1117V8.68351H67.8571L67.8766 8.66393Z" fill="#9E1C20"/>
</svg>
