<svg width="20" height="22" viewBox="0 0 20 22" fill="none" xmlns="http://www.w3.org/2000/svg">
<path d="M8.79626 8.17132V4.3444C8.79626 3.63982 9.36705 3.06824 10.0716 3.06824C10.7762 3.06824 11.3478 3.63982 11.3478 4.3444V8.98357L12.3999 5.21127C12.4444 5.05203 12.5199 4.90314 12.6221 4.77317C12.7243 4.64319 12.8511 4.53469 12.9954 4.45392C13.1397 4.37315 13.2985 4.32167 13.4627 4.30247C13.6269 4.28326 13.7934 4.29671 13.9524 4.34202C14.1123 4.38756 14.2615 4.46443 14.3914 4.56817C14.5214 4.67192 14.6294 4.80046 14.7091 4.94633C14.7889 5.09219 14.8389 5.25247 14.8562 5.41782C14.8735 5.58318 14.8577 5.75032 14.8098 5.90952L13.0871 11.6507M9.42484 11.1923C9.58707 10.7429 9.56776 10.2479 9.37101 9.81244L8.52155 7.92827C8.45366 7.77778 8.35673 7.64217 8.2363 7.52921C8.11588 7.41627 7.97434 7.32822 7.8198 7.27011C7.66526 7.21199 7.50076 7.18498 7.33576 7.1906C7.17076 7.19622 7.00849 7.23437 6.85826 7.30286C6.70566 7.37249 6.56858 7.47201 6.45512 7.59555C6.34167 7.71909 6.25416 7.86415 6.19777 8.02211C6.14137 8.18007 6.11724 8.34774 6.1268 8.5152C6.13636 8.68267 6.17942 8.84651 6.25343 8.99703L6.3603 9.21553M11.1166 15.4791L11.5061 14.7001C11.5153 14.682 11.5204 14.6619 11.5209 14.6415C11.5215 14.6211 11.5175 14.6008 11.5094 14.582C11.5012 14.5632 11.489 14.5466 11.4737 14.5331C11.4584 14.5195 11.4402 14.5096 11.4206 14.5039L8.61022 13.6774C8.33739 13.5966 8.10139 13.4231 7.94307 13.1867C7.78477 12.9502 7.7141 12.666 7.74333 12.383C7.77676 12.0647 7.93427 11.7723 8.18174 11.5693C8.4292 11.3663 8.7467 11.269 9.06543 11.2984L12.8559 11.6515C12.8559 11.6515 15.8721 12.1154 14.8271 15.1309C13.7838 18.1471 13.4362 19.1906 11.1166 19.1906H7.17335C6.28127 19.1903 5.4258 18.8359 4.79501 18.2051C4.16422 17.5743 3.80975 16.7188 3.80955 15.8267L3.69318 9.3319M6.17901 8.80782L7.01421 10.6611C7.1433 10.9679 7.14741 11.313 7.02568 11.6228C6.90395 11.9326 6.666 12.1825 6.36258 12.3194C6.05916 12.4562 5.71429 12.4691 5.40151 12.3553C5.08873 12.2414 4.8328 12.0099 4.6883 11.7101L3.85151 9.85677C3.78263 9.70395 3.74454 9.53906 3.73938 9.37151C3.73423 9.20395 3.76213 9.03703 3.8215 8.88027C3.94139 8.56366 4.18213 8.30765 4.49077 8.16855C4.79943 8.02945 5.15069 8.01865 5.46729 8.13854C5.78389 8.25842 6.0399 8.49917 6.17901 8.80782Z" stroke="#333132" stroke-width="1.1875" stroke-linecap="round"/>
</svg>
