<svg width="32" height="50" viewBox="0 0 32 50" fill="none" xmlns="http://www.w3.org/2000/svg">
<path d="M7.22078 13.946C10.9416 13.946 13.9416 10.9304 13.9416 7.19023C13.9416 3.45007 10.9416 0.434448 7.22078 0.434448C3.5 0.434448 0.5 3.45007 0.5 7.19023C0.5 10.9304 3.5 13.946 7.22078 13.946ZM7.22078 36.054C3.5 36.054 0.5 39.0697 0.5 42.8098C0.5 46.55 3.5 49.5656 7.22078 49.5656C10.9416 49.5656 13.9416 46.55 13.9416 42.8098C13.9416 39.0697 10.9416 36.054 7.22078 36.054ZM28.4351 37.0331C27.3442 36.3674 26.6818 35.1729 26.6818 33.9C26.6818 32.6272 27.3442 31.4327 28.4351 30.7669C30.461 29.5332 31.6688 27.3596 31.6688 24.9902C31.6688 21.2697 28.6493 18.2345 24.9481 18.2345C22.5909 18.2345 20.4481 19.4485 19.2013 21.4851C18.539 22.5816 17.3506 23.2474 16.0844 23.2474C14.8182 23.2474 13.6299 22.5816 12.9675 21.4851C11.7208 19.4485 9.57792 18.2345 7.22078 18.2345C3.51948 18.2345 0.5 21.2697 0.5 24.9902C0.5 28.7108 3.51948 31.746 7.22078 31.746C9.57792 31.746 11.7208 30.5319 12.9675 28.4954C13.6299 27.3988 14.8182 26.733 16.0844 26.733C17.3506 26.733 18.539 27.3988 19.2013 28.4954C19.7662 29.4158 20.5455 30.199 21.461 30.7669C22.5519 31.4327 23.2143 32.6272 23.2143 33.9C23.2143 35.1729 22.5519 36.3674 21.461 37.0331C19.4351 38.2668 18.2273 40.4404 18.2273 42.8098C18.2273 46.5304 21.2468 49.5656 24.9481 49.5656C28.6493 49.5656 31.6688 46.5304 31.6688 42.8098C31.6688 40.4404 30.461 38.2864 28.4351 37.0331Z" fill="#9E1C20"/>
</svg>
